<?xml version="1.0" encoding="utf-8"?>
<!-- Generator: Adobe Illustrator 25.4.1, SVG Export Plug-In . SVG Version: 6.00 Build 0)  -->
<svg version="1.1" id="Layer_1" xmlns="http://www.w3.org/2000/svg" xmlns:xlink="http://www.w3.org/1999/xlink" x="0px" y="0px"
	 viewBox="0 0 640 360" style="enable-background:new 0 0 640 360;" xml:space="preserve">
<style type="text/css">
	.st0{font-family:'Ubuntu-Regular';}
	.st1{font-size:72.9349px;}
	.st2{fill:#27346A;}
	.st3{fill:#FFFFFF;}
</style>
<g>
	<text transform="matrix(1 0 0 1 274.8116 203.9773)" class="st0 st1">PayCrypt</text>
	<g>
		<circle class="st2" cx="155.19" cy="180" r="89.62"/>
		<path class="st3" d="M127.03,134.86c0.84-3.24,1.73-4.83,4.8-4.83c5.3,0,42.7-0.2,48.15,0.29c5.45,0.49,13.65,3.17,17.87,8.16
			c13.69,14.59,4.9,46.15-17.3,57.06c-9.93,4.91-18.19,5.58-25.56,5.13c-22.65-2.62-12.44-30.3-1.7-35.88
			c10.38-5.36,18.25-3.81,22.52-0.84c3.08,2.14,3.06,2.39,5.02,0.42c1.97-1.97,7.53-6.44,8.54-7.28s1.3-2.3-0.42-4.02
			c-9.08-9.08-23.63-8.76-35.66-4.1c-7.82,3.03-12.14,6.5-16.99,11.72c-4.97,5.22-16.91,25.81-7.87,43.89
			c4.27,6.25,5.94,6.84,10.46,9.01c3.52,1.34,2.93,1.84,2.51,4.6c-0.42,2.76-1,5.36-1.76,8.04c-0.75,2.68-1.51,3.77-5.52,3.77
			c-4.02,0-23.48-0.21-25.74-0.21s-2.8-0.71-2.05-4.56C107.08,221.38,125.2,142.62,127.03,134.86z"/>
	</g>
</g>
</svg>
