<?xml version="1.0" encoding="utf-8"?>
<!-- Generator: Adobe Illustrator 25.4.1, SVG Export Plug-In . SVG Version: 6.00 Build 0)  -->
<svg version="1.1" id="Layer_1" xmlns="http://www.w3.org/2000/svg" xmlns:xlink="http://www.w3.org/1999/xlink" x="0px" y="0px"
	 viewBox="0 0 640 360" style="enable-background:new 0 0 640 360;" xml:space="preserve">
<style type="text/css">
	.st0{enable-background:new    ;}
	.st1{fill:#27346A;}
	.st2{fill:#FFFFFF;}
</style>
<g>
	<g class="st0">
		<path d="M294.5,152.9c7.1,0,12.6,1.3,16.4,4c3.8,2.7,5.7,6.7,5.7,12.1c0,2.9-0.5,5.4-1.6,7.5c-1,2.1-2.6,3.7-4.5,5
			c-2,1.3-4.4,2.2-7.2,2.8c-2.8,0.6-6,0.9-9.6,0.9h-5.6V204h-7.1v-49.8c2-0.5,4.2-0.8,6.7-1C290.2,153,292.5,152.9,294.5,152.9z
			 M295.1,159.1c-3,0-5.3,0.1-6.9,0.2v19.8h5.3c2.4,0,4.6-0.2,6.6-0.5c1.9-0.3,3.6-0.9,4.9-1.6c1.3-0.8,2.4-1.8,3.1-3.1
			c0.7-1.3,1.1-3,1.1-5c0-1.9-0.4-3.5-1.1-4.8c-0.8-1.3-1.8-2.3-3.1-3c-1.3-0.8-2.8-1.3-4.5-1.6C298.8,159.3,297,159.1,295.1,159.1z
			"/>
		<path d="M335.9,165.1c2.7,0,5,0.4,6.9,1.1c1.9,0.7,3.4,1.7,4.5,3c1.1,1.3,2,2.8,2.4,4.6c0.5,1.8,0.7,3.7,0.7,5.9v23.7
			c-0.6,0.1-1.4,0.2-2.4,0.4c-1,0.2-2.2,0.3-3.5,0.5s-2.7,0.3-4.3,0.4c-1.5,0.1-3.1,0.2-4.6,0.2c-2.1,0-4.1-0.2-5.9-0.7
			c-1.8-0.4-3.4-1.1-4.7-2.1c-1.3-0.9-2.3-2.2-3.1-3.8c-0.7-1.6-1.1-3.4-1.1-5.6c0-2.1,0.4-3.9,1.3-5.4c0.8-1.5,2-2.7,3.5-3.6
			c1.5-0.9,3.2-1.6,5.1-2c1.9-0.4,4-0.7,6.1-0.7c0.7,0,1.4,0,2.1,0.1c0.7,0.1,1.4,0.2,2.1,0.3c0.7,0.1,1.2,0.2,1.7,0.3
			c0.5,0.1,0.8,0.2,1,0.2V180c0-1.1-0.1-2.2-0.4-3.3c-0.2-1.1-0.7-2.1-1.3-2.9c-0.6-0.9-1.5-1.5-2.6-2s-2.5-0.8-4.3-0.8
			c-2.2,0-4.2,0.2-5.9,0.5c-1.7,0.3-2.9,0.6-3.8,1l-0.8-5.6c0.9-0.4,2.3-0.8,4.4-1.1C331.3,165.3,333.5,165.1,335.9,165.1z
			 M336.4,199.1c1.6,0,3,0,4.3-0.1c1.2-0.1,2.3-0.2,3.1-0.4v-11.3c-0.5-0.2-1.3-0.4-2.4-0.6c-1.1-0.2-2.4-0.3-4-0.3
			c-1,0-2.1,0.1-3.2,0.2c-1.1,0.1-2.2,0.5-3.1,0.9c-0.9,0.5-1.7,1.1-2.4,1.9c-0.6,0.8-0.9,1.9-0.9,3.2c0,2.4,0.8,4.1,2.3,5.1
			C331.7,198.6,333.8,199.1,336.4,199.1z"/>
		<path d="M356.1,211.1c0.5,0.2,1.2,0.5,2.1,0.7s1.7,0.3,2.5,0.3c2.7,0,4.8-0.6,6.3-1.8c1.5-1.2,2.9-3.1,4.1-5.8
			c-3.1-5.8-5.9-12-8.6-18.6c-2.7-6.5-4.9-13.2-6.6-19.9h7.3c0.5,2.2,1.2,4.5,1.9,7.1c0.8,2.5,1.6,5.1,2.5,7.8c0.9,2.7,1.9,5.3,3,8
			c1.1,2.7,2.2,5.3,3.4,7.7c1.8-5.1,3.5-10.2,4.8-15.2c1.4-5,2.6-10.2,3.9-15.5h7c-1.8,7.1-3.7,14-5.8,20.6
			c-2.1,6.6-4.4,12.8-6.9,18.5c-1,2.2-2,4.1-3,5.7c-1,1.6-2.2,2.9-3.5,3.9c-1.3,1-2.7,1.8-4.3,2.3c-1.6,0.5-3.4,0.7-5.4,0.7
			c-0.5,0-1.1,0-1.7-0.1c-0.6-0.1-1.2-0.2-1.7-0.3c-0.6-0.1-1.1-0.3-1.5-0.4c-0.5-0.1-0.8-0.3-1-0.4L356.1,211.1z"/>
		<path d="M419,205.1c-3.5,0-6.8-0.6-9.7-1.8c-2.9-1.2-5.4-2.9-7.5-5.1c-2.1-2.2-3.7-5-4.8-8.3c-1.1-3.3-1.7-7-1.7-11.3
			s0.6-8,1.9-11.3c1.3-3.3,3-6,5.2-8.3c2.2-2.2,4.7-3.9,7.7-5.1c2.9-1.2,6-1.8,9.3-1.8c2.1,0,4,0.1,5.7,0.4c1.7,0.3,3.1,0.6,4.4,1
			c1.2,0.4,2.2,0.8,3,1.2c0.8,0.4,1.3,0.7,1.6,0.9l-2,5.8c-0.4-0.3-1.1-0.6-1.9-0.9c-0.8-0.3-1.8-0.7-2.8-1c-1-0.3-2.2-0.6-3.4-0.8
			c-1.2-0.2-2.5-0.3-3.8-0.3c-2.7,0-5.1,0.5-7.2,1.4c-2.1,0.9-4,2.3-5.5,4c-1.5,1.8-2.7,3.9-3.5,6.4c-0.8,2.5-1.2,5.3-1.2,8.4
			c0,3,0.4,5.8,1.1,8.2c0.7,2.5,1.8,4.6,3.2,6.4c1.4,1.8,3.2,3.1,5.3,4.1c2.1,1,4.6,1.5,7.4,1.5c3.3,0,6-0.3,8.1-1
			c2.1-0.7,3.7-1.3,4.8-1.8l1.8,5.8c-0.3,0.2-0.9,0.5-1.8,0.9c-0.9,0.4-2,0.7-3.3,1.1c-1.3,0.3-2.8,0.6-4.6,0.9
			C422.9,204.9,421,205.1,419,205.1z"/>
		<path d="M456.1,165.2c0.6,0,1.3,0,2,0.1c0.8,0.1,1.5,0.2,2.2,0.3c0.7,0.1,1.4,0.2,2,0.4c0.6,0.1,1.1,0.2,1.3,0.3l-1.2,5.9
			c-0.5-0.2-1.4-0.4-2.7-0.7c-1.2-0.3-2.8-0.4-4.8-0.4c-1.3,0-2.5,0.1-3.8,0.4c-1.2,0.3-2.1,0.5-2.4,0.5V204H442v-36.3
			c1.6-0.6,3.6-1.1,6-1.6C450.4,165.5,453.1,165.2,456.1,165.2z"/>
		<path d="M467.3,211.1c0.5,0.2,1.2,0.5,2.1,0.7c0.8,0.2,1.7,0.3,2.5,0.3c2.7,0,4.8-0.6,6.3-1.8c1.5-1.2,2.9-3.1,4.1-5.8
			c-3.1-5.8-5.9-12-8.6-18.6c-2.7-6.5-4.8-13.2-6.6-19.9h7.3c0.5,2.2,1.2,4.5,1.9,7.1c0.8,2.5,1.6,5.1,2.5,7.8c0.9,2.7,1.9,5.3,3,8
			c1.1,2.7,2.2,5.3,3.4,7.7c1.8-5.1,3.5-10.2,4.8-15.2c1.4-5,2.7-10.2,3.9-15.5h7c-1.8,7.1-3.7,14-5.8,20.6
			c-2.1,6.6-4.4,12.8-6.9,18.5c-1,2.2-2,4.1-3,5.7c-1,1.6-2.2,2.9-3.5,3.9c-1.3,1-2.7,1.8-4.3,2.3c-1.6,0.5-3.4,0.7-5.4,0.7
			c-0.5,0-1.1,0-1.7-0.1c-0.6-0.1-1.2-0.2-1.7-0.3c-0.6-0.1-1.1-0.3-1.5-0.4c-0.5-0.1-0.8-0.3-1-0.4L467.3,211.1z"/>
		<path d="M541.4,185.1c0,2.9-0.4,5.5-1.1,8c-0.8,2.4-1.9,4.5-3.3,6.3c-1.5,1.8-3.2,3.1-5.4,4.1c-2.1,1-4.5,1.5-7.3,1.5
			c-2.2,0-4.1-0.3-5.8-0.9s-2.9-1.1-3.8-1.7v15.2H508v-50.3c1.6-0.4,3.6-0.8,6-1.3c2.4-0.5,5.2-0.7,8.4-0.7c2.9,0,5.5,0.5,7.9,1.4
			c2.3,0.9,4.3,2.2,6,3.9c1.7,1.7,2.9,3.8,3.8,6.2C540.9,179.3,541.4,182,541.4,185.1z M534.3,185.1c0-4.4-1.1-7.8-3.3-10.2
			c-2.2-2.4-5.1-3.6-8.8-3.6c-2,0-3.6,0.1-4.8,0.2c-1.1,0.1-2.1,0.3-2.7,0.5V196c0.8,0.7,2,1.3,3.6,2c1.6,0.6,3.3,0.9,5.1,0.9
			c1.9,0,3.6-0.4,5-1.1c1.4-0.7,2.5-1.7,3.4-2.9c0.9-1.2,1.5-2.7,1.9-4.4C534.1,188.8,534.3,187,534.3,185.1z"/>
		<path d="M557.3,166.1h14.4v5.7h-14.4v17.5c0,1.9,0.1,3.5,0.4,4.7c0.3,1.2,0.7,2.2,1.3,2.9c0.6,0.7,1.3,1.2,2.2,1.5
			c0.9,0.3,1.9,0.4,3.1,0.4c2,0,3.7-0.2,4.9-0.7c1.2-0.5,2.1-0.8,2.6-1l1.3,5.6c-0.7,0.3-1.9,0.8-3.6,1.3c-1.7,0.5-3.6,0.8-5.8,0.8
			c-2.6,0-4.7-0.3-6.4-1s-3-1.6-4-3c-1-1.3-1.7-2.9-2.2-4.9c-0.4-1.9-0.6-4.1-0.6-6.7v-33.8l6.8-1.2V166.1z"/>
	</g>
	<g>
		<circle class="st1" cx="155.2" cy="180" r="89.6"/>
		<path class="st2" d="M127,134.9c0.8-3.2,1.7-4.8,4.8-4.8c5.3,0,42.7-0.2,48.2,0.3c5.4,0.5,13.6,3.2,17.9,8.2
			c13.7,14.6,4.9,46.2-17.3,57.1c-9.9,4.9-18.2,5.6-25.6,5.1c-22.6-2.6-12.4-30.3-1.7-35.9c10.4-5.4,18.2-3.8,22.5-0.8
			c3.1,2.1,3.1,2.4,5,0.4c2-2,7.5-6.4,8.5-7.3s1.3-2.3-0.4-4c-9.1-9.1-23.6-8.8-35.7-4.1c-7.8,3-12.1,6.5-17,11.7
			c-5,5.2-16.9,25.8-7.9,43.9c4.3,6.2,5.9,6.8,10.5,9c3.5,1.3,2.9,1.8,2.5,4.6c-0.4,2.8-1,5.4-1.8,8c-0.8,2.7-1.5,3.8-5.5,3.8
			c-4,0-23.5-0.2-25.7-0.2s-2.8-0.7-2.1-4.6C107.1,221.4,125.2,142.6,127,134.9z"/>
	</g>
</g>
</svg>
